<?xml version='1.0' encoding='UTF-8'?>
<svg xmlns="http://www.w3.org/2000/svg" viewBox="0 0 150 39">
  <path d="M.478 37.63h1.707v.388H.002v-4.752h.476v4.364ZM5.788 36.89H3.625l-.414 1.128h-.502l1.733-4.69h.537l1.726 4.69h-.502l-.415-1.129Zm-.144-.396-.938-2.57-.94 2.57h1.878ZM10.54 35.972c.185.222.278.48.278.776 0 .241-.06.456-.18.648-.12.193-.295.344-.527.456a1.885 1.885 0 0 1-.829.166H7.636v-4.752h1.597c.48 0 .846.112 1.097.334a1.1 1.1 0 0 1 .378.863c0 .295-.08.534-.239.717a1.264 1.264 0 0 1-.612.385c.269.05.495.186.68.407h.003Zm-2.428-.604H9.22c.322 0 .57-.076.744-.227.175-.151.26-.36.26-.629 0-.268-.087-.468-.26-.62-.176-.148-.43-.224-.766-.224H8.112v1.7Zm1.943 2.004c.193-.163.29-.388.29-.673 0-.285-.1-.514-.302-.683-.203-.17-.473-.256-.812-.256H8.117v1.856h1.136c.344 0 .612-.08.804-.244h-.002ZM12.805 37.757a2.231 2.231 0 0 1-.846-.863 2.517 2.517 0 0 1-.31-1.256c0-.468.103-.885.31-1.255.207-.37.488-.659.846-.863.359-.208.756-.31 1.197-.31.442 0 .846.102 1.205.31.358.207.639.495.843.863.205.37.308.787.308 1.255 0 .468-.103.885-.308 1.256-.204.37-.485.658-.843.863-.359.207-.758.31-1.205.31a2.33 2.33 0 0 1-1.197-.31Zm2.148-.351c.28-.163.503-.397.666-.705.163-.307.244-.66.244-1.063 0-.402-.08-.755-.244-1.06a1.74 1.74 0 0 0-.666-.7 1.854 1.854 0 0 0-.95-.244c-.354 0-.671.08-.951.244-.28.163-.503.397-.666.7a2.21 2.21 0 0 0-.244 1.06c0 .403.08.759.244 1.063.163.305.385.542.666.705.28.163.597.244.95.244.354 0 .671-.08.951-.244ZM19.922 38.018l-1.175-1.985h-.878v1.985h-.475v-4.752h1.429c.531 0 .93.127 1.206.38.273.254.413.588.413 1 0 .344-.098.639-.296.88-.197.242-.487.4-.872.473l1.224 2.02h-.576Zm-2.053-2.372h.958c.371 0 .651-.09.84-.273.187-.18.282-.425.282-.727s-.09-.553-.273-.724c-.18-.17-.468-.256-.856-.256h-.95v1.98ZM24.308 36.89h-2.162l-.415 1.128h-.502l1.733-4.69h.537l1.726 4.69h-.502l-.415-1.129Zm-.143-.396-.94-2.57-.938 2.57h1.878ZM28.939 33.266v.395h-1.32v4.36h-.475v-4.36h-1.326v-.395h3.12ZM30.801 37.757a2.231 2.231 0 0 1-.846-.863 2.516 2.516 0 0 1-.31-1.256c0-.468.103-.885.31-1.255.207-.37.488-.659.846-.863.359-.208.756-.31 1.197-.31.442 0 .846.102 1.205.31.358.207.639.495.843.863.205.37.308.787.308 1.255 0 .468-.103.885-.308 1.256-.204.37-.485.658-.843.863-.359.207-.759.31-1.205.31a2.33 2.33 0 0 1-1.197-.31Zm2.148-.351c.28-.163.503-.397.666-.705.163-.307.244-.66.244-1.063 0-.402-.08-.755-.244-1.06a1.74 1.74 0 0 0-.666-.7 1.853 1.853 0 0 0-.95-.244c-.354 0-.671.08-.952.244-.28.163-.502.397-.665.7a2.211 2.211 0 0 0-.244 1.06c0 .403.08.759.244 1.063.163.305.385.542.665.705.28.163.598.244.951.244.354 0 .67-.08.951-.244ZM37.92 38.018l-1.175-1.985h-.877v1.985h-.476v-4.752h1.429c.531 0 .931.127 1.207.38.273.254.412.588.412 1 0 .344-.098.639-.295.88-.198.242-.488.4-.873.473l1.224 2.02h-.576Zm-2.053-2.372h.959c.37 0 .65-.09.838-.273.188-.18.283-.425.283-.727s-.09-.553-.273-.724c-.18-.17-.468-.256-.856-.256h-.95v1.98ZM40.027 33.266v4.752h-.475v-4.752h.475ZM42.217 37.757a2.231 2.231 0 0 1-.846-.863 2.516 2.516 0 0 1-.31-1.256c0-.468.102-.885.31-1.255.207-.37.487-.659.846-.863.358-.208.755-.31 1.197-.31.441 0 .846.102 1.204.31.359.207.64.495.844.863.205.37.307.787.307 1.255 0 .468-.102.885-.307 1.256-.205.37-.485.658-.844.863-.358.207-.758.31-1.204.31a2.33 2.33 0 0 1-1.197-.31Zm2.15-.351c.28-.163.502-.397.666-.705.163-.307.244-.66.244-1.063 0-.402-.08-.755-.244-1.06a1.74 1.74 0 0 0-.666-.7 1.854 1.854 0 0 0-.95-.244c-.354 0-.671.08-.952.244-.28.163-.502.397-.665.7a2.21 2.21 0 0 0-.244 1.06c0 .403.08.759.244 1.063.163.305.385.542.665.705.28.163.598.244.951.244.354 0 .67-.08.951-.244ZM51.601 33.551c.376.19.663.466.863.822.2.358.3.785.3 1.278 0 .492-.1.911-.3 1.267-.2.356-.487.63-.863.817-.375.188-.826.283-1.353.283H48.84v-4.752h1.407c.527 0 .978.095 1.353.285Zm.159 3.553c.346-.346.519-.832.519-1.45 0-.62-.173-1.115-.52-1.466-.346-.351-.85-.527-1.511-.527h-.931v3.965h.93c.662 0 1.166-.174 1.513-.52v-.002ZM54.285 33.654v1.775h1.802v.395h-1.802v1.802h2.007v.395H53.81v-4.76h2.482v.395h-2.007v-.002ZM62.336 35.972c.186.222.278.48.278.776 0 .241-.06.456-.18.648-.12.193-.295.344-.527.456a1.884 1.884 0 0 1-.829.166h-1.646v-4.752h1.597c.48 0 .846.112 1.097.334.252.222.378.51.378.863 0 .295-.08.534-.238.717a1.264 1.264 0 0 1-.612.385c.268.05.494.186.68.407h.002Zm-2.428-.604h1.11c.321 0 .57-.076.743-.227.175-.151.26-.36.26-.629 0-.268-.087-.468-.26-.62-.176-.148-.43-.224-.766-.224h-1.087v1.7Zm1.943 2.004c.193-.163.29-.388.29-.673 0-.285-.1-.514-.302-.683-.203-.17-.473-.256-.812-.256h-1.114v1.856h1.136c.344 0 .612-.08.804-.244h-.002ZM64.138 33.266v4.752h-.475v-4.752h.475ZM65.864 33.654v1.775h1.802v.395h-1.802v1.802h2.007v.395h-2.482v-4.76h2.482v.395h-2.007v-.002ZM72.562 38.018h-.476l-2.63-3.998v3.998h-.476v-4.752h.476l2.63 3.991v-3.99h.476v4.751ZM74.288 33.654v1.775h1.802v.395h-1.802v1.802h2.007v.395h-2.482v-4.76h2.482v.395h-2.007v-.002ZM78.019 37.903a1.356 1.356 0 0 1-.561-.456 1.178 1.178 0 0 1-.217-.653h.502a.958.958 0 0 0 .305.61c.18.175.446.26.795.26.321 0 .577-.082.765-.248a.804.804 0 0 0 .283-.63c0-.204-.051-.367-.156-.492a.964.964 0 0 0-.388-.278 6.282 6.282 0 0 0-.638-.2 5.779 5.779 0 0 1-.756-.25 1.187 1.187 0 0 1-.476-.381c-.131-.173-.197-.405-.197-.7 0-.244.063-.463.19-.656.127-.192.305-.343.536-.45.232-.11.498-.164.795-.164.439 0 .795.107 1.063.322.27.214.424.492.466.834h-.517a.854.854 0 0 0-.32-.52c-.18-.151-.426-.227-.733-.227-.286 0-.525.076-.715.227a.75.75 0 0 0-.285.622c0 .2.051.36.156.483.105.122.234.214.39.278.156.063.368.131.637.204.307.086.558.171.748.256.19.083.351.213.483.386.131.173.197.402.197.692 0 .222-.058.434-.178.632-.117.2-.292.36-.524.482a1.754 1.754 0 0 1-.829.183 1.93 1.93 0 0 1-.826-.163l.005-.003ZM86.133 35.619c-.268.249-.668.373-1.205.373h-.958v2.026h-.475v-4.752h1.433c.532 0 .932.125 1.2.373.27.249.405.58.405.992 0 .413-.135.737-.403.986l.003.002Zm-.088-.987c0-.317-.088-.559-.266-.722-.178-.164-.46-.244-.85-.244h-.959v1.916h.958c.744 0 1.115-.317 1.115-.95h.002ZM87.956 33.266v2.992c0 .47.112.821.337 1.046.224.226.531.339.921.339s.695-.113.915-.337c.22-.224.329-.575.329-1.05v-2.992h.475v2.984c0 .602-.16 1.056-.48 1.36-.32.305-.736.456-1.248.456s-.93-.15-1.249-.456c-.319-.304-.48-.755-.48-1.36v-2.984h.475l.005.002Zm1.875-1.034-1.394.81v-.368l1.394-.87v.428ZM95.068 35.972c.186.222.278.48.278.776 0 .241-.06.456-.18.648-.12.193-.295.344-.527.456a1.885 1.885 0 0 1-.829.166h-1.645v-4.752h1.596c.48 0 .847.112 1.098.334a1.1 1.1 0 0 1 .378.863c0 .295-.08.534-.24.717a1.264 1.264 0 0 1-.611.385c.268.05.495.186.68.407h.002Zm-2.428-.604h1.11c.321 0 .57-.076.743-.227.175-.151.26-.36.26-.629 0-.268-.087-.468-.26-.62-.176-.148-.43-.224-.766-.224H92.64v1.7Zm1.94 2.004c.193-.163.29-.388.29-.673 0-.285-.1-.514-.301-.683-.203-.17-.473-.256-.812-.256h-1.115v1.856h1.137c.343 0 .612-.08.804-.244h-.002ZM96.87 37.63h1.707v.388h-2.182v-4.752h.475v4.364ZM99.901 33.266v4.752h-.475v-4.752h.475ZM101.242 34.385c.205-.37.483-.658.836-.863a2.3 2.3 0 0 1 1.183-.31c.531 0 .985.127 1.362.378.378.251.654.607.827 1.063h-.558a1.656 1.656 0 0 0-.622-.755c-.278-.18-.614-.274-1.009-.274-.349 0-.664.08-.942.244a1.694 1.694 0 0 0-.655.705c-.159.305-.239.66-.239 1.063 0 .402.08.756.239 1.06.158.305.377.537.655.7.278.164.593.244.942.244.395 0 .731-.09 1.009-.268.278-.178.485-.427.622-.744h.558a2.123 2.123 0 0 1-.829 1.053c-.38.25-.834.374-1.36.374-.434 0-.829-.103-1.183-.31a2.24 2.24 0 0 1-.836-.86 2.526 2.526 0 0 1-.305-1.252c0-.465.102-.885.305-1.255v.007ZM107.503 37.757a2.235 2.235 0 0 1-.846-.863 2.52 2.52 0 0 1-.31-1.256c0-.468.103-.885.31-1.255.207-.37.488-.659.846-.863.359-.208.756-.31 1.197-.31.442 0 .846.102 1.205.31.358.207.638.495.843.863.205.37.307.787.307 1.255 0 .468-.102.885-.307 1.256-.205.37-.485.658-.843.863a2.36 2.36 0 0 1-1.205.31c-.446 0-.838-.103-1.197-.31Zm2.148-.351c.28-.163.502-.397.666-.705.163-.307.244-.66.244-1.063 0-.402-.081-.755-.244-1.06a1.747 1.747 0 0 0-.666-.7 1.852 1.852 0 0 0-.951-.244c-.353 0-.67.08-.951.244-.28.163-.502.397-.665.7a2.203 2.203 0 0 0-.244 1.06c0 .403.08.759.244 1.063.163.305.385.542.665.705.281.163.598.244.951.244.354 0 .671-.08.951-.244ZM112.708 37.903a1.349 1.349 0 0 1-.56-.456 1.171 1.171 0 0 1-.217-.653h.502a.957.957 0 0 0 .305.61c.18.175.446.26.795.26.321 0 .577-.082.765-.248a.803.803 0 0 0 .283-.63c0-.204-.051-.367-.156-.492a.963.963 0 0 0-.388-.278 6.207 6.207 0 0 0-.639-.2 5.726 5.726 0 0 1-.755-.25 1.185 1.185 0 0 1-.476-.381c-.131-.173-.197-.405-.197-.7 0-.244.063-.463.19-.656a1.26 1.26 0 0 1 .536-.45c.232-.11.498-.164.795-.164.439 0 .795.107 1.063.322.271.214.424.492.466.834h-.517a.857.857 0 0 0-.319-.52c-.181-.151-.427-.227-.734-.227-.286 0-.525.076-.715.227a.751.751 0 0 0-.285.622c0 .2.051.36.156.483.105.122.234.214.39.278.156.063.368.131.637.204.307.086.558.171.748.256.19.083.351.213.483.386.131.173.197.402.197.692 0 .222-.058.434-.178.632-.117.2-.292.36-.524.482a1.755 1.755 0 0 1-.829.183c-.322 0-.588-.053-.826-.163l.004-.003ZM120.945 33.551c.375.19.663.466.863.822.2.358.3.785.3 1.278 0 .492-.1.911-.3 1.267-.2.356-.488.63-.863.817-.376.188-.827.283-1.354.283h-1.406v-4.752h1.406c.527 0 .978.095 1.354.285Zm.16 3.553c.347-.346.52-.832.52-1.45 0-.62-.173-1.115-.52-1.466-.346-.351-.85-.527-1.511-.527h-.932v3.965h.932c.661 0 1.165-.174 1.511-.52v-.002ZM123.631 33.266v4.752h-.475v-4.752h.475ZM128.622 34.654a1.641 1.641 0 0 0-.621-.74 1.787 1.787 0 0 0-.983-.267c-.353 0-.67.08-.951.243-.28.164-.502.395-.665.698-.164.302-.244.65-.244 1.05s.08.752.244 1.054c.163.305.385.536.665.7.281.163.598.243.951.243.332 0 .629-.07.895-.214s.478-.346.639-.612c.161-.266.253-.575.275-.929h-1.999v-.388h2.501v.347a2.401 2.401 0 0 1-.338 1.13 2.238 2.238 0 0 1-.82.8 2.282 2.282 0 0 1-1.153.293 2.38 2.38 0 0 1-1.197-.31 2.236 2.236 0 0 1-.846-.863 2.52 2.52 0 0 1-.31-1.255c0-.468.103-.885.31-1.256.207-.37.488-.658.846-.863.358-.207.756-.31 1.197-.31.507 0 .951.127 1.334.38.38.254.658.608.829 1.061h-.559v.008ZM130.846 33.266v4.752h-.476v-4.752h.476ZM134.876 33.266v.395h-1.319v4.36h-.475v-4.36h-1.327v-.395h3.121ZM138.555 36.89h-2.162l-.415 1.128h-.502l1.733-4.69h.537l1.726 4.69h-.502l-.415-1.129Zm-.144-.396-.938-2.57-.939 2.57h1.877ZM140.881 37.63h1.707v.388h-2.182v-4.752h.475v4.364ZM143.912 33.654v1.775h1.802v.395h-1.802v1.802h2.007v.395h-2.482v-4.76h2.482v.395h-2.007v-.002ZM147.642 37.903a1.358 1.358 0 0 1-.561-.456 1.178 1.178 0 0 1-.216-.653h.502a.957.957 0 0 0 .305.61c.18.175.446.26.794.26.322 0 .578-.082.766-.248a.803.803 0 0 0 .283-.63c0-.204-.051-.367-.156-.492a.963.963 0 0 0-.388-.278 6.288 6.288 0 0 0-.639-.2 5.799 5.799 0 0 1-.756-.25 1.19 1.19 0 0 1-.475-.381c-.132-.173-.197-.405-.197-.7 0-.244.063-.463.19-.656.126-.192.304-.343.536-.45.232-.11.497-.164.795-.164.439 0 .795.107 1.063.322.271.214.424.492.466.834h-.517a.854.854 0 0 0-.32-.52c-.18-.151-.426-.227-.734-.227-.285 0-.524.076-.714.227a.751.751 0 0 0-.285.622c0 .2.051.36.156.483.105.122.234.214.39.278.156.063.368.131.636.204.308.086.559.171.749.256.19.083.351.213.483.386.131.173.197.402.197.692 0 .222-.058.434-.178.632-.117.2-.292.36-.524.482a1.755 1.755 0 0 1-.829.183c-.322 0-.588-.053-.827-.163l.005-.003Z" fill="#888B8D"/>
  <path d="M132.808 13.449V.359l-13.09 13.09h13.09ZM119.718 26.57V13.479l-13.093 13.093h13.093ZM14.829.336v2.785H3.426v8.845h9.257v2.785H3.426v11.818H0V.335h14.829ZM32.78 26.57l-6.246-10.725h-4.14v10.726H18.97V.339h8.467c1.983 0 3.658.339 5.026 1.017 1.367.677 2.389 1.594 3.067 2.747.677 1.154 1.016 2.473 1.016 3.953 0 1.806-.521 3.4-1.563 4.778-1.04 1.38-2.603 2.297-4.686 2.748l6.586 10.989h-4.104.003ZM22.395 13.096h5.043c1.855 0 3.25-.458 4.176-1.372.929-.917 1.392-2.139 1.392-3.67 0-1.531-.458-2.76-1.373-3.613-.916-.854-2.313-1.28-4.196-1.28h-5.042v9.935ZM57.358 20.736H45.915l-2.106 5.835h-3.614L49.68.49h3.952l9.445 26.08h-3.613l-2.106-5.834Zm-.978-2.784L51.638 4.703l-4.743 13.249h9.485ZM66.1 6.53c1.154-2.046 2.729-3.646 4.723-4.799C72.818.578 75.032 0 77.467 0c2.86 0 5.357.69 7.49 2.07 2.134 1.38 3.69 3.338 4.667 5.871h-4.103c-.73-1.58-1.775-2.796-3.143-3.65-1.368-.853-3.004-1.28-4.91-1.28-1.907 0-3.475.427-4.93 1.28-1.456.853-2.597 2.065-3.426 3.633-.83 1.568-1.241 3.406-1.241 5.513 0 2.106.414 3.908 1.24 5.476.83 1.567 1.97 2.78 3.426 3.633 1.456.853 3.1 1.28 4.93 1.28 1.831 0 3.543-.42 4.91-1.26 1.369-.842 2.415-2.051 3.144-3.634h4.103c-.978 2.51-2.536 4.447-4.667 5.815-2.133 1.368-4.63 2.05-7.49 2.05-2.433 0-4.647-.57-6.644-1.71-1.994-1.142-3.569-2.73-4.722-4.763-1.153-2.033-1.731-4.327-1.731-6.887 0-2.56.578-4.862 1.73-6.908ZM110.326.336v2.785h-7.151v23.448H99.75V3.12h-7.188V.336h17.764ZM140.816 23.784H150v2.785h-12.608V.335h3.426v23.448h-.002Z" fill="#003087"/>
</svg>
